#N canvas 67 80 378 279 10;
#X obj 61 97 mrpeach/unpackOSC;
#X floatatom 61 150 5 0 0 0 - - -;
#N canvas 0 23 450 300 smooth 0;
#X obj 243 163 * 0.1;
#X obj 301 138 f;
#X obj 252 222 +;
#X obj 302 192 * 0.9;
#X obj 243 137 t f b;
#X obj 234 52 inlet;
#X obj 247 262 outlet;
#X connect 0 0 2 0;
#X connect 1 0 3 0;
#X connect 2 0 1 1;
#X connect 2 0 6 0;
#X connect 3 0 2 1;
#X connect 4 0 0 0;
#X connect 4 1 1 0;
#X connect 5 0 4 0;
#X restore 61 172 pd smooth;
#X text 49 26 RUN COMMAND: art-bio -c emg osc;
#X floatatom 61 196 5 0 0 0 - - -;
#X obj 61 122 route /rtbio/emg/power;
#X obj 61 72 mrpeach/udpreceive 4810;
#X connect 0 0 5 0;
#X connect 1 0 2 0;
#X connect 2 0 4 0;
#X connect 5 0 1 0;
#X connect 6 0 0 0;
